<svg xmlns="http://www.w3.org/2000/svg" viewBox="0 0 500 500"><g id="freepik--background-complete--inject-8"><rect x="416.78" y="398.49" width="33.12" height="0.25" style="fill:#ebebeb"></rect><rect x="322.53" y="401.21" width="8.69" height="0.25" style="fill:#ebebeb"></rect><rect x="396.59" y="389.21" width="19.19" height="0.25" style="fill:#ebebeb"></rect><rect x="52.46" y="390.89" width="43.19" height="0.25" style="fill:#ebebeb"></rect><rect x="104.56" y="390.89" width="6.33" height="0.25" style="fill:#ebebeb"></rect><rect x="131.47" y="395.11" width="93.68" height="0.25" style="fill:#ebebeb"></rect><path d="M237,337.8H43.92a5.71,5.71,0,0,1-5.71-5.71V60.66A5.71,5.71,0,0,1,43.92,55H237a5.71,5.71,0,0,1,5.71,5.71V332.09A5.71,5.71,0,0,1,237,337.8ZM43.92,55.2a5.47,5.47,0,0,0-5.46,5.46V332.09a5.47,5.47,0,0,0,5.46,5.46H237a5.47,5.47,0,0,0,5.46-5.46V60.66A5.47,5.47,0,0,0,237,55.2Z" style="fill:#ebebeb"></path><path d="M453.31,337.8H260.21a5.72,5.72,0,0,1-5.71-5.71V60.66A5.72,5.72,0,0,1,260.21,55h193.1A5.71,5.71,0,0,1,459,60.66V332.09A5.71,5.71,0,0,1,453.31,337.8ZM260.21,55.2a5.47,5.47,0,0,0-5.46,5.46V332.09a5.47,5.47,0,0,0,5.46,5.46h193.1a5.47,5.47,0,0,0,5.46-5.46V60.66a5.47,5.47,0,0,0-5.46-5.46Z" style="fill:#ebebeb"></path><rect y="382.4" width="500" height="0.25" style="fill:#ebebeb"></rect><path d="M65,79H214.41a6.45,6.45,0,0,1,6.45,6.45v34.22a0,0,0,0,1,0,0H58.6a0,0,0,0,1,0,0V85.46A6.45,6.45,0,0,1,65,79Z" style="fill:#f5f5f5"></path><path d="M58.6,122.43H220.86a0,0,0,0,1,0,0v5.86a6.45,6.45,0,0,1-6.45,6.45H65a6.45,6.45,0,0,1-6.45-6.45v-5.86A0,0,0,0,1,58.6,122.43Z" style="fill:#f0f0f0"></path><rect x="64.96" y="106.01" width="19.38" height="8.26" rx="2.3" style="fill:#e0e0e0"></rect><rect x="205.07" y="106.01" width="9.21" height="8.26" rx="2.3" style="fill:#e0e0e0"></rect><polygon points="216.83 126.04 62.1 126.04 64.64 124.76 214.29 124.76 216.83 126.04" style="fill:#e0e0e0"></polygon><polygon points="216.83 129.22 62.1 129.22 64.64 127.94 214.29 127.94 216.83 129.22" style="fill:#e0e0e0"></polygon><polygon points="216.83 132.41 62.1 132.41 64.64 131.13 214.29 131.13 216.83 132.41" style="fill:#e0e0e0"></polygon><rect x="310.38" y="200.62" width="100.42" height="182.53" style="fill:#f0f0f0"></rect><rect x="410.81" y="200.62" width="28.41" height="182.53" style="fill:#e6e6e6"></rect><rect x="320.81" y="215.32" width="80.33" height="48.13" style="fill:#fafafa"></rect><rect x="320.81" y="268.7" width="80.33" height="48.13" style="fill:#fafafa"></rect><rect x="320.81" y="322.09" width="80.33" height="48.13" style="fill:#fafafa"></rect><path d="M365,226a5.36,5.36,0,1,1-5.36-5.35A5.36,5.36,0,0,1,365,226Z" style="fill:#e0e0e0"></path><path d="M362.27,226a5.36,5.36,0,1,1-5.35-5.35A5.36,5.36,0,0,1,362.27,226Z" style="fill:#f0f0f0"></path><path d="M365,279.21a5.36,5.36,0,1,1-5.36-5.36A5.35,5.35,0,0,1,365,279.21Z" style="fill:#e0e0e0"></path><path d="M362.27,279.21a5.36,5.36,0,1,1-5.35-5.36A5.35,5.35,0,0,1,362.27,279.21Z" style="fill:#f0f0f0"></path><path d="M365,332.39a5.36,5.36,0,1,1-5.36-5.36A5.35,5.35,0,0,1,365,332.39Z" style="fill:#e0e0e0"></path><path d="M362.27,332.39a5.36,5.36,0,1,1-5.35-5.36A5.35,5.35,0,0,1,362.27,332.39Z" style="fill:#f0f0f0"></path><path d="M377,165.3c-2.69,0-4.87.67-4.87,1.49s2.18-.29,4.87-.29a8.64,8.64,0,0,1,1,.06v5.89h1.54v-5.67c1.38.27,2.3.54,2.3,0C381.9,166,379.72,165.3,377,165.3Z" style="fill:#e0e0e0"></path><rect x="376.09" y="170.53" width="5.49" height="5.49" style="fill:#ebebeb"></rect><rect x="370.22" y="174.97" width="17.22" height="25.97" rx="2.48" style="fill:#ebebeb"></rect><path d="M371.44,184v13.44a2.31,2.31,0,0,0,2.31,2.31h10.16a2.32,2.32,0,0,0,2.31-2.31V181.51C381.88,181.53,374.87,184.17,371.44,184Z" style="fill:#fafafa"></path><polygon points="381.18 188.06 379.59 188.06 379.59 186.47 378.07 186.47 378.07 188.06 376.47 188.06 376.47 189.58 378.07 189.58 378.07 191.18 379.59 191.18 379.59 189.58 381.18 189.58 381.18 188.06" style="fill:#e0e0e0"></polygon><rect x="207.89" y="353.29" width="53.18" height="5.62" style="fill:#e0e0e0"></rect><path d="M267.89,274.2H195.07V289h72.82a7.41,7.41,0,1,0,0-14.81Z" style="fill:#e0e0e0"></path><path d="M215.1,289H73a7.4,7.4,0,0,1-7.4-7.4h0A7.4,7.4,0,0,1,73,274.2H215.1a7.41,7.41,0,0,1,7.41,7.41h0A7.4,7.4,0,0,1,215.1,289Z" style="fill:#ebebeb"></path><rect x="257.52" y="296.42" width="7.1" height="75.43" style="fill:#f5f5f5"></rect><path d="M268.23,377.21a7.16,7.16,0,1,1-7.16-7.16A7.16,7.16,0,0,1,268.23,377.21Z" style="fill:#e0e0e0"></path><rect x="128.72" y="296.42" width="7.1" height="75.43" style="fill:#f5f5f5"></rect><path d="M139.43,377.21a7.16,7.16,0,1,1-7.16-7.16A7.15,7.15,0,0,1,139.43,377.21Z" style="fill:#e0e0e0"></path><rect x="65.6" y="289.01" width="157.48" height="7.41" style="fill:#e6e6e6"></rect><rect x="220.32" y="289.01" width="54.98" height="7.41" style="fill:#f0f0f0"></rect><rect x="79.83" y="353.29" width="128.07" height="5.62" style="fill:#e0e0e0"></rect><rect x="76.27" y="296.42" width="7.1" height="75.43" style="fill:#ebebeb"></rect><path d="M87,377.21a7.16,7.16,0,1,1-7.15-7.16A7.15,7.15,0,0,1,87,377.21Z" style="fill:#e0e0e0"></path><rect x="205.07" y="296.42" width="7.1" height="75.43" style="fill:#ebebeb"></rect><path d="M215.78,377.21a7.16,7.16,0,1,1-7.16-7.16A7.16,7.16,0,0,1,215.78,377.21Z" style="fill:#e0e0e0"></path></g><g id="freepik--Shadow--inject-8"><ellipse id="freepik--path--inject-8" cx="245.18" cy="412.39" rx="193.89" ry="11.32" style="fill:#f5f5f5"></ellipse></g><g id="freepik--Board--inject-8"><rect x="131.47" y="99" width="206.23" height="166.67" style="fill:#16A085"></rect><rect x="131.47" y="99" width="206.23" height="166.67" style="fill:#fff;opacity:0.9"></rect><polygon points="329.2 257.17 139.97 257.17 139.97 107.5 131.47 99 131.47 265.67 337.7 265.67 329.2 257.17" style="fill:#263238"></polygon><polygon points="329.2 257.17 139.97 257.17 139.97 107.5 131.47 99 131.47 265.67 337.7 265.67 329.2 257.17" style="fill:#fff;opacity:0.4"></polygon><polygon points="337.7 265.67 337.7 99 131.47 99 139.97 107.5 329.2 107.5 329.2 257.17 337.7 265.67" style="fill:#263238"></polygon><polygon points="337.7 265.67 337.7 99 131.47 99 139.97 107.5 329.2 107.5 329.2 257.17 337.7 265.67" style="fill:#fff;opacity:0.7000000000000001"></polygon><polygon points="245.43 395.69 245.43 265.67 229.19 265.67 229.19 395.69 192.58 401.07 192.58 410.45 282.05 410.45 282.05 401.07 245.43 395.69" style="fill:#263238"></polygon><polygon points="239.98 395.69 239.98 265.67 223.74 265.67 223.74 395.69 187.12 401.07 187.12 410.45 276.59 410.45 276.59 401.07 239.98 395.69" style="fill:#263238"></polygon><polygon points="239.98 395.69 239.98 265.67 223.74 265.67 223.74 395.69 187.12 401.07 187.12 410.45 276.59 410.45 276.59 401.07 239.98 395.69" style="fill:#fff;opacity:0.2"></polygon></g><g id="freepik--Foot--inject-8"><rect x="246.92" y="209.36" width="71.22" height="47.79" style="fill:#263238"></rect><path d="M277.76,222.31c-.73-3.16,0-12.95,0-12.95H258.83c.11,4.51,0,15.75-3.5,21.71-4.46,7.56-4.45,22.14,7.29,21.45s25.29-2.23,33.52-1,22-2.91,22-2.91v-4.14S282.6,243.36,277.76,222.31Z" style="fill:#fff;opacity:0.1"></path><path d="M288.39,240.42s1.52-2.1,7.23,0,7.79,2.85,7.33,5.22-3.65,4.31-8.75,3.28S281.6,246.55,288.39,240.42Z" style="fill:#16A085"></path><path d="M264.41,209.36s.92,8.81,0,14.29-3.2,10.41-.57,11.44,5.26-3.21,5.26-3.21,4.92-3.88,2.4-7.54l-1.6-15Z" style="fill:#fff"></path><path d="M269.1,236.69s-7.43,1.6-.68,2.63c0,0,8.23,3.2,7.2-1.32,0,0,4.75-3.83.09-4.86C275.71,233.14,274.13,226.63,269.1,236.69Z" style="fill:#fff"></path><path d="M262.22,239.52a1.35,1.35,0,0,0-1.38-.57c-1.44.26-3.78,1.27-3.06,5.05,1,5.38,6.86,4.12,8.81,1.83,1.25-1.48,4.69-.29,7.1-.71a1.36,1.36,0,0,0-.3-2.69C269.83,242.5,263.94,242.19,262.22,239.52Z" style="fill:#fff"></path><path d="M277.16,239.4a6.67,6.67,0,0,1,1.54-3.12,1.86,1.86,0,0,1,2.23-.45l.62.31a1.86,1.86,0,0,1,.57,2.92,10.22,10.22,0,0,0-1.23,1.74,1.87,1.87,0,0,1-3,.44l-.23-.24A1.87,1.87,0,0,1,277.16,239.4Z" style="fill:#fff"></path><path d="M284.16,241.57l1.55-2a1.52,1.52,0,0,1,1.52-.54c.9.2,2.13.65,2.36,1.66a1.41,1.41,0,0,1-.34,1.17l-1.67,2a1.47,1.47,0,0,1-1.87.3A2.38,2.38,0,0,0,285,244,1.5,1.5,0,0,1,284.16,241.57Z" style="fill:#fff"></path><path d="M291.51,242.63c.29-.49,0-2,.57-2.21,1.27-.5,3.27,2.56,4.57,2.94.77.22,2.77-.67,3.2,0,.67,1-.77,4.14-1.94,4.43-.68.18-1.56-1.49-2.23-1.73-1.71-.61-6.6,1.35-7.26-.34C288,244.7,291,243.57,291.51,242.63Z" style="fill:#fff"></path><path d="M301.29,245.79c.09-.28-.23-1,0-1.19.57-.41,2,.87,2.68.89.41,0,1.3-.69,1.6-.41.47.42.15,2.18-.4,2.48-.32.18-1-.55-1.34-.58-.94-.09-3.15,1.53-3.7.76C299.81,247.28,301.14,246.34,301.29,245.79Z" style="fill:#fff"></path><path d="M306.88,246.47h0a1,1,0,0,0,1.09,1.27c1.29-.1,3-.35,3-1s-1.82-1-2.95-1.06A1,1,0,0,0,306.88,246.47Z" style="fill:#fff"></path><path d="M294.2,255.51A11.12,11.12,0,0,1,283.64,248a1,1,0,0,1,.75-1.32h0a1,1,0,0,1,1.2.66A9.12,9.12,0,0,0,300,251.41a1,1,0,0,1,1.38.06h0a1,1,0,0,1-.07,1.53A11.09,11.09,0,0,1,294.2,255.51Z" style="fill:#16A085"></path><path d="M303.66,240.82a1,1,0,0,1-1.28-.51,9.17,9.17,0,0,0-8.18-5.08,9,9,0,0,0-3.26.6,1,1,0,0,1-1.28-.49h0a1,1,0,0,1,.54-1.43,11.09,11.09,0,0,1,4-.74,11.23,11.23,0,0,1,10,6.24,1,1,0,0,1-.57,1.41Z" style="fill:#16A085"></path></g><g id="freepik--Knee--inject-8"><rect x="247.21" y="115.22" width="70.26" height="84.23" style="fill:#263238"></rect><path d="M247.21,144C254,147.43,270,155,278.93,155c0,0-1.74,13.09,1.15,44.48H303.8c.65-5.23,2.63-21.79,3.06-30.43.52-10.34,5.95-20,3.37-28.77s-8.54-8.21-19.66-13.9c-6-3.09-14.27-7.62-20.55-11.12H247.21Z" style="fill:#fff;opacity:0.1"></path><path d="M285.49,150.5s4.39.88,5,4.46,11.67,0,11.67,0l1.27-8.55s-.47-3-7.57-7.42S285.49,150.5,285.49,150.5Z" style="fill:#16A085"></path><path d="M299.15,147.59a7,7,0,0,1-2-5.07,2.45,2.45,0,0,1,3.23-2.15c1.84.62,3.85,2.17,3.09,6A2.49,2.49,0,0,1,299.15,147.59Z" style="fill:#fff"></path><path d="M295.93,156s-5.27-3.1-3.72-6.2,5.69,3.1,9.14,3.1-4.25,46.55-4.25,46.55h-5.18S296.55,170.55,295.93,156Z" style="fill:#fff"></path><path d="M289.45,199.44h-4s3-28.74,2-38.27c-.19-1.87-.86-6.17,3-6.21s.34,8.28.34,8.28Z" style="fill:#fff"></path><path d="M286.17,136.17l-39-20.17v9.34l34.48,19.45c5.51,13.81,10.69,0,10.69,0C303.07,135.13,286.17,136.17,286.17,136.17Z" style="fill:#fff"></path><path d="M282.92,162a17,17,0,0,1-6.76-12.57,1,1,0,0,1,1-1.06h0a1,1,0,0,1,1,.94,15,15,0,0,0,5.94,11,1,1,0,0,1,.22,1.38h0A1,1,0,0,1,282.92,162Z" style="fill:#16A085"></path><path d="M305.52,158.57h0a1,1,0,0,1-.16-1.43,15,15,0,0,0-11.18-23.7,1,1,0,0,1-1-1h0a1,1,0,0,1,1.12-1,17.06,17.06,0,0,1,12.73,27A1,1,0,0,1,305.52,158.57Z" style="fill:#16A085"></path></g><g id="freepik--Hand--inject-8"><rect x="153.09" y="125.53" width="89.63" height="131.62" style="fill:#263238"></rect><path d="M183.12,130.94c-8.55.47-6,51-6,51s-8.26-21.32-13.2-21.08-2.35,21.17,1.18,39.05,18,40.45,18,40.45l.72,16.83h33.8L219,238.21s10.35-43.52,11.76-58.21-.23-32.83-5.65-33.3-6.58,9.8-6.58,9.8-2.35-26-5.76-26.74-5.37,5.65-5.37,5.65L205,125.53h-9.93L191,163.8S191.67,130.47,183.12,130.94Z" style="fill:#fff;opacity:0.1"></path><path d="M180.68,212.68s7.54-12.76,35.5-2.41c0,0,5.38,9.12-3.45,19.36,0,0-11.32,8-25.59,0C187.14,229.63,178.28,225.19,180.68,212.68Z" style="fill:#16A085"></path><path d="M190.85,257.15h9.35V237.74s6-9,3.17-11.82-7.05,1.41-7.05,1.41-6.18-6.7-10.06-2.38,4.94,12.44,4.94,12.44Z" style="fill:#fff"></path><path d="M206.73,257.15l1.06-22.76s-3.71-4.23-2.65-6.53,4.23,0,4.23,0,2.83-3.27,4.77-1-1.24,6.31-1.24,6.31l-1.23,24Z" style="fill:#fff"></path><path d="M185.6,221.89l-.41.42a2.62,2.62,0,0,1-4.18-.55h0a2.63,2.63,0,0,1,.37-3.06l.4-.43a2.63,2.63,0,0,1,3.84,0h0A2.63,2.63,0,0,1,185.6,221.89Z" style="fill:#fff"></path><path d="M190.22,219.24l4.77,3.18a2.61,2.61,0,0,0,3.12-.17h0a2.6,2.6,0,0,0,.84-2.75l-1.44-4.93a2.62,2.62,0,0,0-2.51-1.88h-2.59a2.6,2.6,0,0,0-2,.91l-1,1.16a2.6,2.6,0,0,0-.43,2.71l.25.6A2.52,2.52,0,0,0,190.22,219.24Z" style="fill:#fff"></path><path d="M203.89,221.81h0a2.79,2.79,0,0,0,3-2l1.56-5.45a2.8,2.8,0,0,0-1.33-3.21l-.49-.27a2.79,2.79,0,0,0-2.77,0l-1.06.63a2.78,2.78,0,0,0-1.39,2.41V219A2.8,2.8,0,0,0,203.89,221.81Z" style="fill:#fff"></path><path d="M210.44,222.79h0a2.12,2.12,0,0,0,3-1.28l0-.11a2.1,2.1,0,0,1,.65-1l1.3-1.13a2.13,2.13,0,0,0-.21-3.38l-.93-.62a2.13,2.13,0,0,0-3.19,1.07l-.46,1.3a1.86,1.86,0,0,1-.1.25l-1,2.06A2.13,2.13,0,0,0,210.44,222.79Z" style="fill:#fff"></path><path d="M177.26,210.77l.75,3.42a2.08,2.08,0,0,0,3.33,1.17h0a2.09,2.09,0,0,1,1.29-.45h.56a2.08,2.08,0,0,0,2.08-2.08v-.19a2.13,2.13,0,0,0-.37-1.2l-3.36-4.79a2,2,0,0,1-.31-.69l-1.49-6a2.07,2.07,0,0,0-3.09-1.27l-.16.09a2.22,2.22,0,0,1-.74.28l-1.16.19a2.07,2.07,0,0,0-1.53,3l4,8A2.74,2.74,0,0,1,177.26,210.77Z" style="fill:#fff"></path><path d="M187.28,183.26a3.78,3.78,0,0,1,2.48.81,3.68,3.68,0,0,1,1.41,2.72s.31,8.76.74,11.65c.29,2,1.36,6.42,2.09,9.33a1.82,1.82,0,0,1-2.1,2.24l-.77-.15a1.85,1.85,0,0,0-1.2.19h0a1.83,1.83,0,0,1-2.69-1.48c-.22-3.13-.59-8-.91-10.13-.41-2.69-2.3-10.64-2.3-10.64A3.68,3.68,0,0,1,187.28,183.26Z" style="fill:#fff"></path><path d="M170.21,183.13a3.59,3.59,0,0,1,1.91.19,1.88,1.88,0,0,1,1.26,1.32s.87,4.69,1.4,6.21c.36,1,1.49,3.32,2.25,4.82.33.66-.42,1.41-1.41,1.42H175a1.88,1.88,0,0,0-.88.22h0c-.83.46-2,.18-2.12-.53-.39-1.66-1-4.27-1.42-5.37-.5-1.41-2.5-5.5-2.5-5.5C167.6,184.78,168.55,183.41,170.21,183.13Z" style="fill:#fff"></path><path d="M196.94,206.74a1.85,1.85,0,0,0,2.34,1.77c.53-.14,1-.26,1.19-.29.94-.14,1.67,1.11,2.38.47,3-2.71-.62-12-.59-16,0-2.94,2.6-9.61.59-11.76-1.17-1.25-5.65-1.24-6.83,0-2.42,2.57.59,10.58.71,14.11C196.81,197.5,196.89,203.4,196.94,206.74Z" style="fill:#fff"></path><path d="M205.52,206.29a1.48,1.48,0,0,0,1.54,1.82,8.06,8.06,0,0,1,1-.08c.75,0,1.12,1.17,1.76.72,2.68-1.91,1.32-10.31,1.94-13.71.45-2.51,3.43-7.85,2.2-9.95-.71-1.21-4.16-1.81-5.25-.92-2.25,1.86-1.13,9.1-1.56,12.13C206.8,198.4,206,203.44,205.52,206.29Z" style="fill:#fff"></path><path d="M213,210.21a1.42,1.42,0,0,0,1.47,1.67c.42,0,.79,0,.94,0,.73,0,1.07,1.08,1.7.73,2.64-1.47,1.47-8.8,2.14-11.69.49-2.13,3.49-6.54,2.33-8.43-.67-1.1-4-1.84-5.1-1.14-2.23,1.46-1.27,7.77-1.75,10.35C214.42,203.49,213.53,207.78,213,210.21Z" style="fill:#fff"></path><path d="M168,173.46c-1.67.37-1.21,5.86.21,6.81a2.75,2.75,0,0,0,2.64-.28C171.9,178.58,169.71,173.06,168,173.46Z" style="fill:#fff"></path><path d="M183.7,140.58c-1.69-.24-3.23,5-2.25,6.45a2.76,2.76,0,0,0,2.57.68C185.54,146.77,185.46,140.84,183.7,140.58Z" style="fill:#fff"></path><path d="M210.4,140.59c-1.71.12-2.09,5.62-.84,6.77a2.77,2.77,0,0,0,2.66.13C213.5,146.25,212.17,140.47,210.4,140.59Z" style="fill:#fff"></path><path d="M224.29,155.14c-1.71,0-2.38,5.5-1.19,6.72a2.75,2.75,0,0,0,2.64.26C227.09,161,226.07,155.11,224.29,155.14Z" style="fill:#fff"></path><path d="M199.43,136.29c-1.7.08-2.2,5.57-1,6.75a2.76,2.76,0,0,0,2.65.18C202.42,142,201.22,136.2,199.43,136.29Z" style="fill:#fff"></path><path d="M181.85,166.73c-.18-.94-1.91-5.92,2.09-3.18,0,0,4-3.9,3.11,2.29a29.31,29.31,0,0,0,.48,9.44c.4,1.33,4.55,7.59-1.45,5.38,0,0-3.76,2.85-3.44-3.69A55.69,55.69,0,0,0,181.85,166.73Z" style="fill:#fff"></path><path d="M197.12,162.16c-.06-.95-1.1-6.11,2.49-2.87,0,0,4.48-3.32,2.78,2.69a29.38,29.38,0,0,0-.79,9.42c.23,1.38,3.5,8.13-2.15,5.14,0,0-4.11,2.32-2.91-4.12A57.75,57.75,0,0,0,197.12,162.16Z" style="fill:#fff"></path><path d="M208.16,165.65c-.06-1-1.1-6.11,2.49-2.86,0,0,4.48-3.33,2.78,2.68a29.38,29.38,0,0,0-.79,9.42c.22,1.38,3.5,8.13-2.15,5.14,0,0-4.11,2.32-2.91-4.12A57.7,57.7,0,0,0,208.16,165.65Z" style="fill:#fff"></path><path d="M219.4,177c0-.78-.46-5.11,2.67-1.9,0,0,4.61-1.94,2.4,2.62a20,20,0,0,0-1.68,7.45c.08,1.15,2.56,7.12-2.56,3.79,0,0-4.16,1.18-2.39-3.8A37.72,37.72,0,0,0,219.4,177Z" style="fill:#fff"></path><path d="M181.41,150a2.12,2.12,0,0,1,2.62,0c1.24,1.44,1.33,7.31.61,9.41a2.55,2.55,0,0,1-1.61,1.41,2.87,2.87,0,0,1-2-1.52C180.22,157.27,180.2,151.43,181.41,150Z" style="fill:#fff"></path><path d="M198.36,145.67a2.13,2.13,0,0,1,2.61,0c1.25,1.44,1.33,7.31.62,9.41A2.6,2.6,0,0,1,200,156.5a2.94,2.94,0,0,1-2-1.53C197.17,153,197.15,147.11,198.36,145.67Z" style="fill:#fff"></path><path d="M209.42,150.52a2.29,2.29,0,0,1,2.61,0c1.25,1.31,1.33,6.66.62,8.58a2.52,2.52,0,0,1-1.62,1.29,2.91,2.91,0,0,1-2-1.4C208.22,157.15,208.21,151.83,209.42,150.52Z" style="fill:#fff"></path><path d="M222.46,164a1.64,1.64,0,0,1,2,.28c.8,1.23.23,5.72-.54,7.25a2,2,0,0,1-1.39.9,2.24,2.24,0,0,1-1.4-1.39C220.76,169.44,221.38,165,222.46,164Z" style="fill:#fff"></path><path d="M179.23,236.88a28.9,28.9,0,0,1-5.6-33.19,2.68,2.68,0,0,1,3.8-1.06h0a2.66,2.66,0,0,1,1,3.43,23.7,23.7,0,0,0,18.91,33.86,2.65,2.65,0,0,1,2.41,2.64h0a2.69,2.69,0,0,1-2.93,2.68A28.8,28.8,0,0,1,179.23,236.88Z" style="fill:#16A085"></path><path d="M223.57,227.27a2.65,2.65,0,0,1-1.41-3.28,23.79,23.79,0,0,0-5.68-24.36,23.42,23.42,0,0,0-7.08-4.88,2.66,2.66,0,0,1-1.46-3.27h0a2.68,2.68,0,0,1,3.62-1.62,28.85,28.85,0,0,1,8.7,6,29.17,29.17,0,0,1,7,29.87,2.67,2.67,0,0,1-3.64,1.55Z" style="fill:#16A085"></path></g><g id="freepik--character-2--inject-8"><path d="M403,183.25q-1.74,2.58-3.5,5.15l-6.24,10.51c-1.18,1.75-2.41,3.49-3.54,5.21a15.43,15.43,0,0,1-2.94,3.35,10.27,10.27,0,0,1-4.81,2.28,9.79,9.79,0,0,1-5.12-.51,13.35,13.35,0,0,1-3.68-2.14,18.34,18.34,0,0,1-2.68-2.68,21.24,21.24,0,0,1-2.1-3l3.93-3c.67.52,1.48,1.18,2.25,1.68a19.31,19.31,0,0,0,2.34,1.32c1.53.73,2.9.79,3.29.43a3.28,3.28,0,0,0,.78-.73,12.57,12.57,0,0,0,1-1.66c1.09-1.93,2.18-3.8,3.31-5.65,2.24-3.69,4.53-7.32,6.86-10.93s4.73-7.15,7.19-10.68l2.11,1.63A7,7,0,0,1,403,183.25Z" style="fill:#803e3c"></path><path d="M372.24,198.1l-5.06-4.8-2.38,7.36s4.77,4,6.74,1.47Z" style="fill:#7f3e3b"></path><polygon points="360.43 191.84 360.52 198.87 364.8 200.66 367.18 193.3 360.43 191.84" style="fill:#7f3e3b"></polygon><path d="M374.15,198.91l-3.75,6.5s6.42,7.92,14.25,4.08S416.1,167,404.23,166.77c-7-.16-22.66,35.64-25.33,34.56A33.64,33.64,0,0,1,374.15,198.91Z" style="fill:#16A085"></path><path d="M374.15,198.91l-3.75,6.5s6.42,7.92,14.25,4.08S416.1,167,404.23,166.77c-7-.16-22.66,35.64-25.33,34.56A33.64,33.64,0,0,1,374.15,198.91Z" style="fill:#fff;opacity:0.8"></path><path d="M374.62,298.12s19.08-5.68,58.05,3.85l-4.25-57.44L391,239.29Z" style="fill:#16A085"></path><path d="M374.62,298.12s19.08-5.68,58.05,3.85l-4.25-57.44L391,239.29Z" style="fill:#fff;opacity:0.5"></path><polygon points="384.51 404.61 377.06 403.04 378.59 385.36 386.03 386.93 384.51 404.61" style="fill:#7f3e3b"></polygon><path d="M376.27,402l9.07,1.92a.65.65,0,0,1,.53.64l.14,6.94a1.1,1.1,0,0,1-1.35,1.1c-2.91-.67-5-1.29-8.68-2.06-2.27-.48-9.14-1.69-12.26-2.35s-2.91-3.84-1.58-3.85c6,0,10.66-.87,12.83-2.13A1.84,1.84,0,0,1,376.27,402Z" style="fill:#263238"></path><path d="M373.55,402.76a2.35,2.35,0,0,1-1.36-.68,1.14,1.14,0,0,1-.18-1,.56.56,0,0,1,.4-.43c.91-.25,3,1.73,3.25,2a.18.18,0,0,1-.11.31A8.9,8.9,0,0,1,373.55,402.76Zm-.8-1.78a.49.49,0,0,0-.24,0c-.05,0-.12,0-.15.18a.72.72,0,0,0,.11.69,3.7,3.7,0,0,0,2.61.7A7.25,7.25,0,0,0,372.75,401Z" style="fill:#16A085"></path><path d="M375.5,402.9l-.08,0c-.68-.58-1.84-2.53-1.52-3.33a.58.58,0,0,1,.65-.34,1,1,0,0,1,.71.38c.72.89.47,3.08.46,3.17a.18.18,0,0,1-.11.15Zm-.89-3.34h-.08c-.24,0-.28.08-.3.12-.19.47.51,1.91,1.16,2.65a4.31,4.31,0,0,0-.41-2.52A.63.63,0,0,0,374.61,399.56Z" style="fill:#16A085"></path><polygon points="377.66 396.12 385.21 396.43 386 387.31 378.45 387 377.66 396.12" style="opacity:0.2"></polygon><path d="M393.08,229.35s-7.91,65-10.25,86.87c-2.08,19.4-7.24,75.22-7.24,75.22l13.28.76s9.2-55.43,12.49-73.86c3.9-21.92,17.31-87.65,17.31-87.65Z" style="fill:#263238"></path><polygon points="374.65 393.19 390.14 393.5 390.73 388.75 373.91 387.59 374.65 393.19" style="fill:#263238"></polygon><path d="M415,248.6l-1.13-5.32-7.42-5.57S395.17,271.83,407,289C409.7,275.12,412.74,260,415,248.6Z" style="opacity:0.5"></path><polygon points="424.87 404.21 417.26 404.21 415.1 386.59 422.71 386.59 424.87 404.21" style="fill:#7f3e3b"></polygon><path d="M416.26,403.33h9.28a.67.67,0,0,1,.65.52l1.57,6.76a1.11,1.11,0,0,1-1.1,1.36c-3-.06-5.16-.23-8.92-.23-2.32,0-9.29.24-12.48.24s-3.64-3.16-2.34-3.44c5.85-1.29,10.25-3.05,12.11-4.74A1.82,1.82,0,0,1,416.26,403.33Z" style="fill:#263238"></path><path d="M413.76,404.66a2.32,2.32,0,0,1-1.47-.39,1.08,1.08,0,0,1-.38-.95.56.56,0,0,1,.3-.51c.84-.43,3.31,1.08,3.59,1.25a.18.18,0,0,1-.05.33A9.48,9.48,0,0,1,413.76,404.66Zm-1.15-1.57a.53.53,0,0,0-.23,0,.21.21,0,0,0-.11.21.73.73,0,0,0,.25.66,3.73,3.73,0,0,0,2.7.13A7.38,7.38,0,0,0,412.61,403.09Z" style="fill:#16A085"></path><path d="M415.7,404.39l-.08,0c-.79-.43-2.33-2.09-2.18-2.94A.58.58,0,0,1,414,401a1,1,0,0,1,.77.23c.89.72,1.09,2.91,1.1,3a.15.15,0,0,1-.08.16A.17.17,0,0,1,415.7,404.39Zm-1.56-3.08h-.08c-.24,0-.26.14-.27.19-.09.5.9,1.76,1.69,2.35a4.42,4.42,0,0,0-.93-2.38A.61.61,0,0,0,414.14,401.31Z" style="fill:#16A085"></path><polygon points="415.16 387.1 416.38 397.02 423.99 397.02 422.77 387.1 415.16 387.1" style="opacity:0.2"></polygon><path d="M406.53,233.6s-.06,62-.34,84.31c-.31,24.44,6.49,76,6.49,76h13.93s-2.79-46.89-.93-71.11c1.16-15.24,5-43.62,6.44-62.3,1.15-14.51.16-21.69.16-21.69Z" style="fill:#263238"></path><polygon points="411.02 394.22 427.42 394.22 427.38 389.32 410.25 388.33 411.02 394.22" style="fill:#263238"></polygon><path d="M447.1,174.86a169.52,169.52,0,0,0-7.79,24.22c-1.42,5.75-2.53,11.28-3.4,16.31-2.07,11.79-2.16,33.23-2.16,33.23l-46.9-2.07s9.71-32.79,10.59-40c3.32-26.87,7.79-39.78,7.79-39.78a78.22,78.22,0,0,1,9.78.07c.68,0,1.38.11,2.09.19a151.48,151.48,0,0,1,17,3.43c1.06.27,2.13.57,3.16.88C442.52,172.92,447.1,174.86,447.1,174.86Z" style="fill:#16A085"></path><g style="opacity:0.9"><path d="M447.1,174.86a169.52,169.52,0,0,0-7.79,24.22c-1.42,5.75-2.53,11.28-3.4,16.31-2.07,11.79-2.16,33.23-2.16,33.23l-46.9-2.07s9.71-32.79,10.59-40c3.32-26.87,7.79-39.78,7.79-39.78a78.22,78.22,0,0,1,9.78.07c.68,0,1.38.11,2.09.19a151.48,151.48,0,0,1,17,3.43c1.06.27,2.13.57,3.16.88C442.52,172.92,447.1,174.86,447.1,174.86Z" style="fill:#fff"></path></g><path d="M436.06,151c-2.12,5.24-5.12,15-2,19.45-3.35,2.32-6.37,3.93-12.48,2.56-4.67-1.06-3.55-5-4.48-6,6.36-.22,7.08-4.77,6.83-9.23Z" style="fill:#7f3e3b"></path><path d="M431.11,153.78l-7.17,4a18,18,0,0,1-.06,3.12c2.39.13,6.08-1.77,6.79-4.16A8.23,8.23,0,0,0,431.11,153.78Z" style="opacity:0.2"></path><path d="M439.66,144.52c-2.77,7-4,11.26-8.85,13.72-7.23,3.7-15-2.55-14.35-10.28.56-7,5-17.24,12.92-17.73A10.39,10.39,0,0,1,439.66,144.52Z" style="fill:#7f3e3b"></path><path d="M423.59,141.65a20.87,20.87,0,0,1-4.4,3.85,3.64,3.64,0,0,0,2.62,1.41Z" style="fill:#630f0f"></path><path d="M430.89,141.43a.38.38,0,0,1-.27-.24,3,3,0,0,0-1.82-1.89.36.36,0,0,1-.26-.44.35.35,0,0,1,.44-.25A3.6,3.6,0,0,1,431.3,141a.35.35,0,0,1-.23.45A.37.37,0,0,1,430.89,141.43Z" style="fill:#263238"></path><path d="M419.5,137.43a.32.32,0,0,1-.19-.1.37.37,0,0,1,0-.51,3.61,3.61,0,0,1,3.09-1.1.37.37,0,0,1,.28.43.35.35,0,0,1-.41.28,2.79,2.79,0,0,0-2.44.9A.35.35,0,0,1,419.5,137.43Z" style="fill:#263238"></path><path d="M428.31,142.85c-.21.6-.68,1-1.08.84s-.54-.72-.34-1.32.68-1,1.07-.84S428.51,142.25,428.31,142.85Z" style="fill:#263238"></path><path d="M421.55,140.58c-.2.6-.68,1-1.07.84s-.54-.72-.34-1.31.68-1,1.07-.85S421.76,140,421.55,140.58Z" style="fill:#263238"></path><path d="M436.35,149.84s-2.5-3.18,0-7.6c0,0-9.74-6.33-5-9.83a17.26,17.26,0,0,0-6.1,1.83c-3.83,1.94-5.87.17-5.87.17s4.24-17.17,16.25-6.17c0,0,4.75-2.16,8.5,6.67s-5.33,17.42-5.33,17.42Z" style="fill:#263238"></path><path d="M440.48,151.39a7.12,7.12,0,0,1-4.65,2.85c-2.48.36-3.43-2-2.49-4.14.84-2,3.15-4.53,5.52-3.89A3.25,3.25,0,0,1,440.48,151.39Z" style="fill:#7f3e3b"></path><path d="M379.92,302c6.56-20.36,14-46.53,18.1-71.14,8.36-50.42,20.38-64.18,20.38-64.18a39.7,39.7,0,0,0-14.66,0s-12,59.68-22.67,101.54c-3,11.7-6.13,22.12-9.13,31.07Z" style="fill:#16A085"></path><path d="M379.92,302c6.56-20.36,14-46.53,18.1-71.14,8.36-50.42,20.38-64.18,20.38-64.18a39.7,39.7,0,0,0-14.66,0s-12,59.68-22.67,101.54c-3,11.7-6.13,22.12-9.13,31.07Z" style="fill:#fff;opacity:0.6000000000000001"></path><path d="M434.92,304.22a707.69,707.69,0,0,1,0-73.14c.83-14.39.75-25.21,13.38-56.09,0,0,1.73-2.35-13.88-5.25,0,0-15,10-18,45.5-1.77,20.85-1.46,60.91-.91,90.44Z" style="fill:#16A085"></path><path d="M434.92,304.22a707.69,707.69,0,0,1,0-73.14c.83-14.39.75-25.21,13.38-56.09,0,0,1.73-2.35-13.88-5.25,0,0-15,10-18,45.5-1.77,20.85-1.46,60.91-.91,90.44Z" style="fill:#fff;opacity:0.6000000000000001"></path><polygon points="436.01 170.39 432.99 181.01 428.59 183.7 433.48 185.18 419 211.68 430.51 186.3 425.04 184.01 431.42 180.01 436.01 170.39" style="opacity:0.2"></polygon><polygon points="415.01 166.84 407.5 175.17 408.5 178.55 404.17 178.55 401.37 206.3 405.62 180.05 410.37 180.05 409.12 175.42 415.01 166.84" style="opacity:0.2"></polygon><path d="M420.41,246.63h12.26s1.54,14.83-6.13,15.17S420.41,246.63,420.41,246.63Z" style="opacity:0.2"></path><path d="M422.67,149.93a5.42,5.42,0,0,0,4-1.64.19.19,0,0,0,0-.26.19.19,0,0,0-.27,0,5.2,5.2,0,0,1-4.38,1.46.19.19,0,0,0-.21.17.2.2,0,0,0,.16.21A6.46,6.46,0,0,0,422.67,149.93Z" style="fill:#263238"></path><rect x="342.27" y="167.39" width="9.73" height="9.73" transform="translate(6.55 357.1) rotate(-54.88)" style="fill:#263238"></rect><rect x="390.96" y="148.42" width="14.5" height="119.5" rx="3.55" transform="translate(-1.14 414.14) rotate(-54.88)" style="fill:#263238"></rect><rect x="390.96" y="148.42" width="14.5" height="119.5" rx="3.55" transform="translate(-1.14 414.14) rotate(-54.88)" style="fill:#fff;opacity:0.5"></rect><path d="M318.56,113.8l.35-.26a3.27,3.27,0,0,0-.61-5.6c-.65-.3-1.32-.58-2-.83-3.6-1.38-6.1,3.58-2.94,5.79l.17.11c.36.25.7.5,1,.76A3.29,3.29,0,0,0,318.56,113.8Z" style="fill:#fff"></path><path d="M325,124.87A43.36,43.36,0,0,1,330,161a1.8,1.8,0,0,0,3.17,1.57l.06-.09a36.7,36.7,0,0,0-.65-43.1,3.29,3.29,0,0,0-4.61-.69l-2.29,1.72A3.29,3.29,0,0,0,325,124.87Z" style="fill:#fff"></path><path d="M260.73,111.48a52,52,0,1,0,72.44-12.62A52,52,0,0,0,260.73,111.48Zm77.91,54.8A43.26,43.26,0,1,1,328.14,106,43.25,43.25,0,0,1,338.64,166.28Z" style="fill:#16A085"></path><path d="M450.93,180.7c.75,2.57,1.33,5,1.91,7.54s1.06,5.06,1.49,7.62.75,5.17.95,7.84a47.9,47.9,0,0,1,0,8.38,19.15,19.15,0,0,1-1.14,4.87,10.79,10.79,0,0,1-1.56,2.69,10.45,10.45,0,0,1-.95,1.09,10.28,10.28,0,0,1-1,.9,24,24,0,0,1-8,4.07,56.07,56.07,0,0,1-15.68,2.42l-.63-4.91a89.74,89.74,0,0,0,13.45-4.81,18,18,0,0,0,5-3.29,3.86,3.86,0,0,0,.35-.41,1.69,1.69,0,0,0,.25-.36,2.38,2.38,0,0,0,.25-.59,10.85,10.85,0,0,0,.34-2.48,39.41,39.41,0,0,0-.35-6.64c-.28-2.32-.66-4.68-1.12-7-.88-4.71-2-9.56-3.19-14.18Z" style="fill:#803e3c"></path><path d="M427,223.28,420.41,221l.95,8.73s6,.66,6.69-2.51Z" style="fill:#7f3e3b"></path><polygon points="415.03 222.9 416.15 230.08 421.36 229.77 420.41 221.04 415.03 222.9" style="fill:#7f3e3b"></polygon><path d="M429.42,221l1.82,8s21.5-.66,25-13.5c3.16-11.62-1.47-41.68-9.84-42.31-8.62-.66-5.86,11.48-2.8,25.56S445.43,214.58,429.42,221Z" style="fill:#16A085"></path><path d="M429.42,221l1.82,8s21.5-.66,25-13.5c3.16-11.62-1.47-41.68-9.84-42.31-8.62-.66-5.86,11.48-2.8,25.56S445.43,214.58,429.42,221Z" style="fill:#fff;opacity:0.7000000000000001"></path><path d="M419.91,166l.75,6.19,12.67-3.84,1.13,1.58-9.71,7.38-4.42-3.77-5.49,1.17,2.94-8S418.62,167,419.91,166Z" style="fill:#16A085"></path><path d="M419.91,166l.75,6.19,12.67-3.84,1.13,1.58-9.71,7.38-4.42-3.77-5.49,1.17,2.94-8S418.62,167,419.91,166Z" style="fill:#fff;opacity:0.30000000000000004"></path><circle cx="402.85" cy="175.75" r="0.78" style="fill:#16A085"></circle><circle cx="394.81" cy="199.14" r="0.78" style="fill:#16A085"></circle><circle cx="390.35" cy="226.83" r="0.78" style="fill:#16A085"></circle><g style="opacity:0.30000000000000004"><circle cx="402.85" cy="175.75" r="0.78" style="fill:#fff"></circle><circle cx="394.81" cy="199.14" r="0.78" style="fill:#fff"></circle><circle cx="390.35" cy="226.83" r="0.78" style="fill:#fff"></circle></g></g><g id="freepik--character-1--inject-8"><path d="M142.68,140.14c0,.65.32,1.19.75,1.21s.78-.49.8-1.13-.32-1.19-.75-1.21S142.7,139.49,142.68,140.14Z" style="fill:#263238"></path><path d="M143.29,139l1.58-.37S144,139.84,143.29,139Z" style="fill:#263238"></path><path d="M143.22,140.8a17.83,17.83,0,0,0,2.24,4.23,2.8,2.8,0,0,1-2.34.32Z" style="fill:#a02724"></path><path d="M143.65,135.87a.28.28,0,0,1-.18,0,3.21,3.21,0,0,0-2.81.23.38.38,0,0,1-.44-.62,3.94,3.94,0,0,1,3.51-.32.38.38,0,0,1,.22.49A.39.39,0,0,1,143.65,135.87Z" style="fill:#263238"></path><path d="M122.31,147.32c.15,4.87-1.93,12.72-5.75,15.21,0,0,2.47,5.26,11.23,7,9.64,1.87,5.4-3.87,5.4-3.87-5.06-2.27-4.28-6.12-2.76-9.59Z" style="fill:#b55b52"></path><path d="M120.89,137.3c.32,8,.29,11.33,4.25,15.6,6,6.43,15.74,4.57,17.82-3.26,1.87-7,1-18.88-6.75-22.42A10.65,10.65,0,0,0,120.89,137.3Z" style="fill:#b55b52"></path><path d="M136.72,139.2a7.21,7.21,0,0,0,2,3.86c1.45,1.48,2.82.84,3-.74.12-1.41-.49-3.9-2.21-4.83S136.5,137.56,136.72,139.2Z" style="fill:#b55b52"></path><path d="M133,123.89s-16.87-5-18.25,8.38-10.75,23.12-3.37,27.25,24.37,6.07,27.37,1.6-2.49-8.34,0-12.05,2.66-16.28,2.66-16.28S154,131,133,123.89Z" style="fill:#263238"></path><path d="M112.09,162.52s-.15-5.36,7.68-3.93,17,8.06,17,8.06Z" style="fill:#16A085"></path><path d="M112.09,162.52s-.15-5.36,7.68-3.93,17,8.06,17,8.06Z" style="fill:#fff;opacity:0.4"></path><path d="M114.62,198.9a81,81,0,0,1-13.09-1.08,16.21,16.21,0,0,1-2.76-.75,6,6,0,0,1-1.07-.5l0-.14.21-.8.41-1.61c1.18-4.26,2.57-8.52,4.12-12.73s3.22-8.46,4.94-12.44l-8.83-4.09c-1.08,2.26-2,4.41-2.84,6.64s-1.67,4.45-2.43,6.71A121.48,121.48,0,0,0,89.59,192l-.33,1.78-.16.9-.08.48c0,.28-.09.55-.11.85a7.87,7.87,0,0,0,.67,3.82,7.73,7.73,0,0,0,2.32,2.87,12.12,12.12,0,0,0,4.7,2.1,25.32,25.32,0,0,0,4.05.53,52.44,52.44,0,0,0,14.6-1.64Z" style="fill:#b55b52"></path><path d="M115.33,203.84l6.62-1.26-2.3-5.53s-6.59.16-6.36,4.85Z" style="fill:#b55b52"></path><polygon points="124.36 200.6 123.58 195.68 119.65 197.05 121.95 202.58 124.36 200.6" style="fill:#b55b52"></polygon><path d="M89.51,180.2c1.45-4.68,4.73-14.48,8.4-17.74,1.89-1.67,9.31-3.1,10.06-.79,2,6.12-.37,14.3-2.34,18.43-1.84,3.88-6.84,15.73-6.84,15.73s3.75,1.91,12,2l-1,7.84s-15.57,2.31-20.13-4S87.93,185.32,89.51,180.2Z" style="fill:#16A085"></path><path d="M89.51,180.2c1.45-4.68,4.73-14.48,8.4-17.74,1.89-1.67,9.31-3.1,10.06-.79,2,6.12-.37,14.3-2.34,18.43-1.84,3.88-6.84,15.73-6.84,15.73s3.75,1.91,12,2l-1,7.84s-15.57,2.31-20.13-4S87.93,185.32,89.51,180.2Z" style="fill:#fff;opacity:0.5"></path><polygon points="99.61 396.11 107.66 396.7 110.05 378.22 102 377.62 99.61 396.11" style="fill:#b55b52"></polygon><polygon points="48.05 372.62 55.02 376.86 66.62 362.38 59.65 358.13 48.05 372.62" style="fill:#b55b52"></polygon><path d="M57.11,375.31l-6.61-6.37a.64.64,0,0,0-.85-.06L44,373.23a1.29,1.29,0,0,0,0,1.93c2.35,2.18,3.58,3.12,6.49,5.92,1.79,1.73,4.23,4.42,6.71,6.8s4.88.14,4.06-1.07c-3.69-5.41-3.14-7.44-3.47-10.2A2.14,2.14,0,0,0,57.11,375.31Z" style="fill:#263238"></path><path d="M108.16,395.56h-9a.67.67,0,0,0-.66.55l-1.21,7.16a1.25,1.25,0,0,0,1.25,1.43c3.16-.05,4.68-.24,8.66-.24,2.45,0,7.51.25,10.89.25s3.65-3.34,2.25-3.64c-6.28-1.36-8.72-3.23-10.8-5A2,2,0,0,0,108.16,395.56Z" style="fill:#263238"></path><polygon points="110.04 378.22 108.72 388.5 100.76 387.16 101.99 377.63 110.04 378.22" style="opacity:0.2"></polygon><polygon points="59.64 358.14 66.62 362.38 61.82 368.37 54.69 364.31 59.64 358.14" style="opacity:0.2"></polygon><path d="M100.21,210.17l32.29,6.26c15.26-44.93,11.61-46.38,11.61-46.38a67.44,67.44,0,0,0-7.33-3.4l-.44-.17c-2.06-.75-2.5-.86-5.26-1.67-4.76-1.12-9.19-2-14.67-2.83l-1-.15c-1-.12-2-.22-2.93-.32-.64-.07-1.28-.11-1.89-.15l-2.09-.11c-3.53-.18-6-.13-6-.13C104.26,189.16,102.91,197.21,100.21,210.17Z" style="fill:#16A085"></path><path d="M137.58,183.72a27.12,27.12,0,0,0,.95,14.09c2.68-8.78,4.2-14.79,5-18.9C141.08,178.59,138.44,179.39,137.58,183.72Z" style="opacity:0.2"></path><path d="M124,214.77s-15.74,52.69-23.42,83c-8.11,32-35.78,69.64-35.78,69.64l-10.17-5.67S71.37,325.86,79.23,296c15.94-60.65,8.27-73.49,21-85.82Z" style="fill:#263238"></path><polygon points="65.78 368.4 53.09 361.32 54.94 357.56 69.91 364.45 65.78 368.4" style="fill:#263238"></polygon><path d="M116.59,226c-10.32,8-11,38.29-10.78,52,5.25-19.16,11.46-40.47,15.09-52.8C119.91,224.36,118.49,224.53,116.59,226Z" style="opacity:0.2"></path><path d="M60.5,378.53a.65.65,0,0,0,.09-.64c-.38-1-3.26-1.57-3.58-1.63a.19.19,0,0,0-.2.08.2.2,0,0,0,0,.21c.6.92,1.76,2.46,2.78,2.48a1.36,1.36,0,0,0,.29,0A1.2,1.2,0,0,0,60.5,378.53Zm-.26-.5a.29.29,0,0,1-.05.28.69.69,0,0,1-.59.34c-.55,0-1.36-.72-2.2-1.91C58.54,377,60,377.52,60.24,378Z" style="fill:#16A085"></path><path d="M132,216.43s2,63.74-2.5,87.75c-4.68,25-19,81.78-19,81.78L99,384.46s7.34-57.39,10.46-82.2c3.4-27.05-1-90.41-1-90.41Z" style="fill:#263238"></path><polygon points="113.04 386.62 96.49 384.48 96.7 380.55 114.7 381.33 113.04 386.62" style="fill:#263238"></polygon><path d="M60.52,375.89a.66.66,0,0,0-.09-.84,1,1,0,0,0-.79-.38c-1.16-.05-2.74,1.57-2.81,1.64a.19.19,0,0,0,0,.19.17.17,0,0,0,.13.13,5.64,5.64,0,0,0,2.54-.13A1.83,1.83,0,0,0,60.52,375.89Zm-.89-.84a.64.64,0,0,1,.5.25c.16.19.12.31.07.38-.3.47-1.86.75-2.83.64A4.21,4.21,0,0,1,59.63,375.05Z" style="fill:#16A085"></path><path d="M113.11,396.47a1.07,1.07,0,0,0,.37-.92.58.58,0,0,0-.31-.51c-1-.55-4.23,1.09-4.6,1.28a.2.2,0,0,0-.1.2.19.19,0,0,0,.15.16,14.11,14.11,0,0,0,2.53.29A3.07,3.07,0,0,0,113.11,396.47Zm-.13-1.1a.22.22,0,0,1,.12.2.7.7,0,0,1-.24.62c-.5.43-1.82.51-3.6.22C110.6,395.77,112.45,395.07,113,395.37Z" style="fill:#16A085"></path><path d="M108.74,396.66c1-.43,2.93-2.18,2.78-3.09,0-.21-.18-.47-.7-.53h-.16c-1.8,0-2.17,3.3-2.19,3.44a.17.17,0,0,0,.08.17.15.15,0,0,0,.11,0A.12.12,0,0,0,108.74,396.66Zm2-3.24c.34,0,.36.17.37.21.08.55-1.24,1.92-2.25,2.52.15-.82.61-2.73,1.77-2.73Z" style="fill:#16A085"></path><path d="M100,208.19l-1.93,2.6c-.15.2.08.48.45.55l33.87,6.56c.29,0,.55,0,.6-.22l.77-2.82c0-.19-.17-.41-.49-.47l-32.71-6.34A.59.59,0,0,0,100,208.19Z" style="fill:#16A085"></path><path d="M144.81,169.86s-7-4.76-23-7.59-20-1.56-20-1.56l.87,18.14c.13,20.83-3.4,29.19-3.4,29.19-5.79,8.14-6,9.68-7.31,13.23-2.6,7.18-3.41,8-5.41,30.07s-16.68,40.59-16.68,40.59a159.17,159.17,0,0,0,23.62,8.81,143.47,143.47,0,0,0,6.89-18s-1.31,11.11-3.9,18.77c24.83,6.25,35.94.39,35.94.39,3.21-26.66,2.13-61.9,3.63-82.5.39-5.44,2.72-16.31,4-21.62C145.16,176.74,144.81,169.86,144.81,169.86Z" style="fill:#16A085"></path><path d="M144.81,169.86s-7-4.76-23-7.59-20-1.56-20-1.56l.87,18.14c.13,20.83-3.4,29.19-3.4,29.19-5.79,8.14-6,9.68-7.31,13.23-2.6,7.18-3.41,8-5.41,30.07s-16.68,40.59-16.68,40.59a159.17,159.17,0,0,0,23.62,8.81,143.47,143.47,0,0,0,6.89-18s-1.31,11.11-3.9,18.77c24.83,6.25,35.94.39,35.94.39,3.21-26.66,2.13-61.9,3.63-82.5.39-5.44,2.72-16.31,4-21.62C145.16,176.74,144.81,169.86,144.81,169.86Z" style="fill:#fff;opacity:0.7000000000000001"></path><path d="M127.09,242h6.72s1.75,16-3.36,16.24S127.09,242,127.09,242Z" style="opacity:0.2"></path><path d="M172.35,193.73a79.9,79.9,0,0,1-10.88,7.37,16.33,16.33,0,0,1-2.61,1.14,5.6,5.6,0,0,1-1.16.29l-.06-.13-.34-.76-.68-1.51c-1.76-4.06-3.34-8.24-4.78-12.49s-2.79-8.62-4-12.8l-9.44,2.35c.58,2.44,1.25,4.66,2,6.95s1.49,4.52,2.31,6.75a123.44,123.44,0,0,0,5.8,13.14l.86,1.6.44.8.24.43a8.4,8.4,0,0,0,.45.72,7.73,7.73,0,0,0,2.92,2.56,7.63,7.63,0,0,0,3.6.78,12,12,0,0,0,5-1.3,24.47,24.47,0,0,0,3.5-2.14,52.3,52.3,0,0,0,10.34-10.42Z" style="fill:#b55b52"></path><path d="M176,197.14l4.37-5.13-5.26-2.87s-5,4.26-1.92,7.77Z" style="fill:#b55b52"></path><polygon points="181.01 188.96 177.32 185.61 175.11 189.14 180.37 192.01 181.01 188.96" style="fill:#b55b52"></polygon><path d="M141.07,194.91c-1.81-4.56-5.4-14.25-4.58-19.09.43-2.49,5.31-8.25,7.34-6.92,5.39,3.52,8.68,11.37,9.74,15.82,1,4.17,4.52,16.55,4.52,16.55s4.12-.87,10.62-6l4.13,6.75s-10.68,11.56-18.22,9.47S143,199.89,141.07,194.91Z" style="fill:#16A085"></path><path d="M141.07,194.91c-1.81-4.56-5.4-14.25-4.58-19.09.43-2.49,5.31-8.25,7.34-6.92,5.39,3.52,8.68,11.37,9.74,15.82,1,4.17,4.52,16.55,4.52,16.55s4.12-.87,10.62-6l4.13,6.75s-10.68,11.56-18.22,9.47S143,199.89,141.07,194.91Z" style="fill:#fff;opacity:0.4"></path></g></svg>
